<mxfile host="app.diagrams.net" modified="2023-12-16T21:23:25.698Z" agent="Mozilla/5.0 (Macintosh; Intel Mac OS X 10_15_7) AppleWebKit/537.36 (KHTML, like Gecko) Chrome/120.0.0.0 Safari/537.36" etag="u4-29yd86b27r7U1V45J" version="22.1.11" type="device">
  <diagram name="Page-1" id="P_WMuwW-bm0NDDUtsW0p">
    <mxGraphModel dx="1041" dy="642" grid="1" gridSize="10" guides="1" tooltips="1" connect="1" arrows="1" fold="1" page="1" pageScale="1" pageWidth="827" pageHeight="1169" math="0" shadow="0">
      <root>
        <mxCell id="0" />
        <mxCell id="1" parent="0" />
        <mxCell id="S6YeSbWo2WpchioyTpwH-97" style="edgeStyle=orthogonalEdgeStyle;rounded=0;orthogonalLoop=1;jettySize=auto;html=1;entryX=0.5;entryY=0;entryDx=0;entryDy=0;" edge="1" parent="1" source="S6YeSbWo2WpchioyTpwH-1" target="S6YeSbWo2WpchioyTpwH-2">
          <mxGeometry relative="1" as="geometry">
            <mxPoint x="240" y="60" as="targetPoint" />
            <Array as="points">
              <mxPoint x="350" y="60" />
            </Array>
          </mxGeometry>
        </mxCell>
        <mxCell id="S6YeSbWo2WpchioyTpwH-98" value="Initialize / set" style="edgeLabel;html=1;align=center;verticalAlign=middle;resizable=0;points=[];fontSize=12;" vertex="1" connectable="0" parent="S6YeSbWo2WpchioyTpwH-97">
          <mxGeometry x="-0.3305" y="3" relative="1" as="geometry">
            <mxPoint x="-7" y="-7" as="offset" />
          </mxGeometry>
        </mxCell>
        <mxCell id="S6YeSbWo2WpchioyTpwH-1" value="AsyncState" style="rounded=0;whiteSpace=wrap;html=1;fontSize=16;" vertex="1" parent="1">
          <mxGeometry x="40" y="40" width="100" height="40" as="geometry" />
        </mxCell>
        <mxCell id="S6YeSbWo2WpchioyTpwH-2" value="set-value" style="swimlane;whiteSpace=wrap;html=1;" vertex="1" parent="1">
          <mxGeometry x="40" y="120" width="620" height="450" as="geometry" />
        </mxCell>
        <mxCell id="S6YeSbWo2WpchioyTpwH-42" style="edgeStyle=orthogonalEdgeStyle;rounded=0;orthogonalLoop=1;jettySize=auto;html=1;" edge="1" parent="S6YeSbWo2WpchioyTpwH-2" source="S6YeSbWo2WpchioyTpwH-3" target="S6YeSbWo2WpchioyTpwH-40">
          <mxGeometry relative="1" as="geometry" />
        </mxCell>
        <mxCell id="S6YeSbWo2WpchioyTpwH-3" value="" style="ellipse;whiteSpace=wrap;html=1;aspect=fixed;" vertex="1" parent="S6YeSbWo2WpchioyTpwH-2">
          <mxGeometry x="305" y="40" width="10" height="10" as="geometry" />
        </mxCell>
        <mxCell id="S6YeSbWo2WpchioyTpwH-7" value="set-sync-value" style="swimlane;whiteSpace=wrap;html=1;" vertex="1" parent="S6YeSbWo2WpchioyTpwH-2">
          <mxGeometry x="30" y="170" width="200" height="200" as="geometry">
            <mxRectangle x="40" y="370" width="120" height="30" as="alternateBounds" />
          </mxGeometry>
        </mxCell>
        <mxCell id="S6YeSbWo2WpchioyTpwH-9" style="edgeStyle=orthogonalEdgeStyle;rounded=0;orthogonalLoop=1;jettySize=auto;html=1;" edge="1" parent="S6YeSbWo2WpchioyTpwH-7" source="S6YeSbWo2WpchioyTpwH-8" target="S6YeSbWo2WpchioyTpwH-11">
          <mxGeometry relative="1" as="geometry">
            <mxPoint x="40" y="80" as="targetPoint" />
          </mxGeometry>
        </mxCell>
        <mxCell id="S6YeSbWo2WpchioyTpwH-8" value="" style="ellipse;whiteSpace=wrap;html=1;aspect=fixed;" vertex="1" parent="S6YeSbWo2WpchioyTpwH-7">
          <mxGeometry x="95" y="40" width="10" height="10" as="geometry" />
        </mxCell>
        <mxCell id="S6YeSbWo2WpchioyTpwH-10" value="" style="ellipse;whiteSpace=wrap;html=1;aspect=fixed;" vertex="1" parent="S6YeSbWo2WpchioyTpwH-7">
          <mxGeometry x="175" y="145" width="10" height="10" as="geometry" />
        </mxCell>
        <mxCell id="S6YeSbWo2WpchioyTpwH-101" style="edgeStyle=orthogonalEdgeStyle;rounded=0;orthogonalLoop=1;jettySize=auto;html=1;" edge="1" parent="S6YeSbWo2WpchioyTpwH-7" source="S6YeSbWo2WpchioyTpwH-11" target="S6YeSbWo2WpchioyTpwH-10">
          <mxGeometry relative="1" as="geometry">
            <mxPoint x="100" y="170" as="targetPoint" />
            <Array as="points">
              <mxPoint x="180" y="90" />
            </Array>
          </mxGeometry>
        </mxCell>
        <mxCell id="S6YeSbWo2WpchioyTpwH-107" value="New value" style="edgeLabel;html=1;align=center;verticalAlign=middle;resizable=0;points=[];fontSize=12;" vertex="1" connectable="0" parent="S6YeSbWo2WpchioyTpwH-101">
          <mxGeometry x="-0.8109" y="1" relative="1" as="geometry">
            <mxPoint x="17" y="-7" as="offset" />
          </mxGeometry>
        </mxCell>
        <mxCell id="S6YeSbWo2WpchioyTpwH-11" value="" style="rhombus;whiteSpace=wrap;html=1;" vertex="1" parent="S6YeSbWo2WpchioyTpwH-7">
          <mxGeometry x="80" y="70" width="40" height="40" as="geometry" />
        </mxCell>
        <mxCell id="S6YeSbWo2WpchioyTpwH-114" value="" style="group;flipH=1;" vertex="1" connectable="0" parent="S6YeSbWo2WpchioyTpwH-7">
          <mxGeometry x="20" y="110" width="70" height="20" as="geometry" />
        </mxCell>
        <mxCell id="S6YeSbWo2WpchioyTpwH-115" value="" style="endArrow=none;dashed=1;html=1;dashPattern=1 3;strokeWidth=2;rounded=0;fillColor=#1ba1e2;strokeColor=#006EAF;" edge="1" parent="S6YeSbWo2WpchioyTpwH-114" target="S6YeSbWo2WpchioyTpwH-117">
          <mxGeometry width="50" height="50" relative="1" as="geometry">
            <mxPoint y="10" as="sourcePoint" />
            <mxPoint x="12.143290831815422" y="30" as="targetPoint" />
          </mxGeometry>
        </mxCell>
        <mxCell id="S6YeSbWo2WpchioyTpwH-116" value="ignored" style="edgeLabel;html=1;align=center;verticalAlign=middle;resizable=0;points=[];fontSize=12;fontColor=#006EAF;" vertex="1" connectable="0" parent="S6YeSbWo2WpchioyTpwH-115">
          <mxGeometry x="0.2113" relative="1" as="geometry">
            <mxPoint x="-3" y="-10" as="offset" />
          </mxGeometry>
        </mxCell>
        <mxCell id="S6YeSbWo2WpchioyTpwH-117" value="" style="sketch=0;outlineConnect=0;fontColor=#ffffff;fillColor=#006EAF;strokeColor=#006EAF;dashed=0;verticalLabelPosition=bottom;verticalAlign=top;align=center;html=1;fontSize=12;fontStyle=0;aspect=fixed;pointerEvents=1;shape=mxgraph.aws4.event;" vertex="1" parent="S6YeSbWo2WpchioyTpwH-114">
          <mxGeometry x="45.67" y="2.8" width="15.2" height="15.2" as="geometry" />
        </mxCell>
        <mxCell id="S6YeSbWo2WpchioyTpwH-118" value="" style="ellipse;whiteSpace=wrap;html=1;aspect=fixed;" vertex="1" parent="S6YeSbWo2WpchioyTpwH-7">
          <mxGeometry x="15" y="146" width="10" height="10" as="geometry" />
        </mxCell>
        <mxCell id="S6YeSbWo2WpchioyTpwH-105" style="edgeStyle=orthogonalEdgeStyle;rounded=0;orthogonalLoop=1;jettySize=auto;html=1;exitX=0;exitY=0.5;exitDx=0;exitDy=0;" edge="1" parent="S6YeSbWo2WpchioyTpwH-7" source="S6YeSbWo2WpchioyTpwH-11" target="S6YeSbWo2WpchioyTpwH-118">
          <mxGeometry relative="1" as="geometry">
            <mxPoint x="80" y="91" as="sourcePoint" />
            <mxPoint x="70" y="180" as="targetPoint" />
            <Array as="points">
              <mxPoint x="20" y="90" />
            </Array>
          </mxGeometry>
        </mxCell>
        <mxCell id="S6YeSbWo2WpchioyTpwH-108" value="Same value" style="edgeLabel;html=1;align=center;verticalAlign=middle;resizable=0;points=[];fontSize=12;" vertex="1" connectable="0" parent="S6YeSbWo2WpchioyTpwH-105">
          <mxGeometry x="-0.7276" y="-1" relative="1" as="geometry">
            <mxPoint x="-16" y="-8" as="offset" />
          </mxGeometry>
        </mxCell>
        <mxCell id="S6YeSbWo2WpchioyTpwH-43" style="edgeStyle=orthogonalEdgeStyle;rounded=0;orthogonalLoop=1;jettySize=auto;html=1;" edge="1" parent="S6YeSbWo2WpchioyTpwH-2" source="S6YeSbWo2WpchioyTpwH-40" target="S6YeSbWo2WpchioyTpwH-7">
          <mxGeometry relative="1" as="geometry" />
        </mxCell>
        <mxCell id="S6YeSbWo2WpchioyTpwH-44" value="Sync value" style="edgeLabel;html=1;align=center;verticalAlign=middle;resizable=0;points=[];fontSize=12;" vertex="1" connectable="0" parent="S6YeSbWo2WpchioyTpwH-43">
          <mxGeometry x="-0.4124" y="1" relative="1" as="geometry">
            <mxPoint x="19" y="-10" as="offset" />
          </mxGeometry>
        </mxCell>
        <mxCell id="S6YeSbWo2WpchioyTpwH-57" style="edgeStyle=orthogonalEdgeStyle;rounded=0;orthogonalLoop=1;jettySize=auto;html=1;exitX=1;exitY=0.5;exitDx=0;exitDy=0;" edge="1" parent="S6YeSbWo2WpchioyTpwH-2" source="S6YeSbWo2WpchioyTpwH-40" target="S6YeSbWo2WpchioyTpwH-45">
          <mxGeometry relative="1" as="geometry" />
        </mxCell>
        <mxCell id="S6YeSbWo2WpchioyTpwH-58" value="Async value" style="edgeLabel;html=1;align=center;verticalAlign=middle;resizable=0;points=[];fontSize=12;" vertex="1" connectable="0" parent="S6YeSbWo2WpchioyTpwH-57">
          <mxGeometry x="-0.1685" y="2" relative="1" as="geometry">
            <mxPoint x="-33" y="-7" as="offset" />
          </mxGeometry>
        </mxCell>
        <mxCell id="S6YeSbWo2WpchioyTpwH-40" value="" style="rhombus;whiteSpace=wrap;html=1;" vertex="1" parent="S6YeSbWo2WpchioyTpwH-2">
          <mxGeometry x="290" y="80" width="40" height="40" as="geometry" />
        </mxCell>
        <mxCell id="S6YeSbWo2WpchioyTpwH-45" value="set-async-value" style="swimlane;whiteSpace=wrap;html=1;" vertex="1" parent="S6YeSbWo2WpchioyTpwH-2">
          <mxGeometry x="300" y="170" width="290" height="250" as="geometry">
            <mxRectangle x="330" y="170" width="120" height="30" as="alternateBounds" />
          </mxGeometry>
        </mxCell>
        <mxCell id="S6YeSbWo2WpchioyTpwH-46" style="edgeStyle=orthogonalEdgeStyle;rounded=0;orthogonalLoop=1;jettySize=auto;html=1;" edge="1" parent="S6YeSbWo2WpchioyTpwH-45" source="S6YeSbWo2WpchioyTpwH-47" target="S6YeSbWo2WpchioyTpwH-53">
          <mxGeometry relative="1" as="geometry">
            <mxPoint x="42.5" y="80" as="targetPoint" />
          </mxGeometry>
        </mxCell>
        <mxCell id="S6YeSbWo2WpchioyTpwH-47" value="" style="ellipse;whiteSpace=wrap;html=1;aspect=fixed;" vertex="1" parent="S6YeSbWo2WpchioyTpwH-45">
          <mxGeometry x="140" y="30" width="10" height="10" as="geometry" />
        </mxCell>
        <mxCell id="S6YeSbWo2WpchioyTpwH-68" style="edgeStyle=orthogonalEdgeStyle;rounded=0;orthogonalLoop=1;jettySize=auto;html=1;" edge="1" parent="S6YeSbWo2WpchioyTpwH-45" source="S6YeSbWo2WpchioyTpwH-53" target="S6YeSbWo2WpchioyTpwH-77">
          <mxGeometry relative="1" as="geometry">
            <mxPoint x="234.5" y="200.0000000000001" as="targetPoint" />
            <Array as="points">
              <mxPoint x="219" y="100" />
            </Array>
          </mxGeometry>
        </mxCell>
        <mxCell id="S6YeSbWo2WpchioyTpwH-69" value="Fulfilled" style="edgeLabel;html=1;align=center;verticalAlign=middle;resizable=0;points=[];" vertex="1" connectable="0" parent="S6YeSbWo2WpchioyTpwH-68">
          <mxGeometry x="-0.6632" relative="1" as="geometry">
            <mxPoint x="-4" y="-8" as="offset" />
          </mxGeometry>
        </mxCell>
        <mxCell id="S6YeSbWo2WpchioyTpwH-82" style="edgeStyle=orthogonalEdgeStyle;rounded=0;orthogonalLoop=1;jettySize=auto;html=1;" edge="1" parent="S6YeSbWo2WpchioyTpwH-45" source="S6YeSbWo2WpchioyTpwH-53" target="S6YeSbWo2WpchioyTpwH-78">
          <mxGeometry relative="1" as="geometry">
            <mxPoint x="70" y="200.0000000000001" as="targetPoint" />
            <Array as="points">
              <mxPoint x="73" y="100" />
            </Array>
          </mxGeometry>
        </mxCell>
        <mxCell id="S6YeSbWo2WpchioyTpwH-83" value="Rejected" style="edgeLabel;html=1;align=center;verticalAlign=middle;resizable=0;points=[];" vertex="1" connectable="0" parent="S6YeSbWo2WpchioyTpwH-82">
          <mxGeometry x="-0.7396" y="-2" relative="1" as="geometry">
            <mxPoint x="-5" y="-7" as="offset" />
          </mxGeometry>
        </mxCell>
        <mxCell id="S6YeSbWo2WpchioyTpwH-53" value="" style="rhombus;whiteSpace=wrap;html=1;" vertex="1" parent="S6YeSbWo2WpchioyTpwH-45">
          <mxGeometry x="124.5" y="80" width="40" height="40" as="geometry" />
        </mxCell>
        <mxCell id="S6YeSbWo2WpchioyTpwH-63" value="" style="group" vertex="1" connectable="0" parent="S6YeSbWo2WpchioyTpwH-45">
          <mxGeometry x="144.5" y="45" width="115.29" height="20" as="geometry" />
        </mxCell>
        <mxCell id="S6YeSbWo2WpchioyTpwH-54" value="" style="endArrow=none;dashed=1;html=1;dashPattern=1 3;strokeWidth=2;rounded=0;fillColor=#1ba1e2;strokeColor=#006EAF;" edge="1" parent="S6YeSbWo2WpchioyTpwH-63" target="S6YeSbWo2WpchioyTpwH-119">
          <mxGeometry width="50" height="50" relative="1" as="geometry">
            <mxPoint y="10" as="sourcePoint" />
            <mxPoint x="95.28999999999996" y="10" as="targetPoint" />
          </mxGeometry>
        </mxCell>
        <mxCell id="S6YeSbWo2WpchioyTpwH-55" value="requested" style="edgeLabel;html=1;align=center;verticalAlign=middle;resizable=0;points=[];fontSize=12;fontColor=#006EAF;" vertex="1" connectable="0" parent="S6YeSbWo2WpchioyTpwH-54">
          <mxGeometry x="0.2113" relative="1" as="geometry">
            <mxPoint x="-9" y="-10" as="offset" />
          </mxGeometry>
        </mxCell>
        <mxCell id="S6YeSbWo2WpchioyTpwH-119" value="" style="sketch=0;outlineConnect=0;fontColor=#ffffff;fillColor=#006EAF;strokeColor=#006EAF;dashed=0;verticalLabelPosition=bottom;verticalAlign=top;align=center;html=1;fontSize=12;fontStyle=0;aspect=fixed;pointerEvents=1;shape=mxgraph.aws4.event;" vertex="1" parent="S6YeSbWo2WpchioyTpwH-63">
          <mxGeometry x="85.50000000000009" y="5.000000000000028" width="10.41" height="10.41" as="geometry" />
        </mxCell>
        <mxCell id="S6YeSbWo2WpchioyTpwH-64" value="" style="group" vertex="1" connectable="0" parent="S6YeSbWo2WpchioyTpwH-45">
          <mxGeometry x="144.5" y="152" width="60" height="20" as="geometry" />
        </mxCell>
        <mxCell id="S6YeSbWo2WpchioyTpwH-65" value="" style="endArrow=none;dashed=1;html=1;dashPattern=1 3;strokeWidth=2;rounded=0;fillColor=#1ba1e2;strokeColor=#006EAF;" edge="1" parent="S6YeSbWo2WpchioyTpwH-64" target="S6YeSbWo2WpchioyTpwH-67">
          <mxGeometry width="50" height="50" relative="1" as="geometry">
            <mxPoint y="10" as="sourcePoint" />
            <mxPoint x="10.408534998698933" y="30" as="targetPoint" />
          </mxGeometry>
        </mxCell>
        <mxCell id="S6YeSbWo2WpchioyTpwH-66" value="&lt;font style=&quot;font-size: 12px;&quot;&gt;ignored&lt;/font&gt;" style="edgeLabel;html=1;align=center;verticalAlign=middle;resizable=0;points=[];fontSize=12;fontColor=#006EAF;" vertex="1" connectable="0" parent="S6YeSbWo2WpchioyTpwH-65">
          <mxGeometry x="0.2113" relative="1" as="geometry">
            <mxPoint x="-4" y="-12" as="offset" />
          </mxGeometry>
        </mxCell>
        <mxCell id="S6YeSbWo2WpchioyTpwH-67" value="" style="sketch=0;outlineConnect=0;fontColor=#ffffff;fillColor=#006EAF;strokeColor=#006EAF;dashed=0;verticalLabelPosition=bottom;verticalAlign=top;align=center;html=1;fontSize=12;fontStyle=0;aspect=fixed;pointerEvents=1;shape=mxgraph.aws4.event;" vertex="1" parent="S6YeSbWo2WpchioyTpwH-64">
          <mxGeometry x="49.59146500130106" y="4.8" width="10.408534998698933" height="10.408534998698933" as="geometry" />
        </mxCell>
        <mxCell id="S6YeSbWo2WpchioyTpwH-51" style="edgeStyle=orthogonalEdgeStyle;rounded=0;orthogonalLoop=1;jettySize=auto;html=1;entryX=0.5;entryY=0;entryDx=0;entryDy=0;" edge="1" parent="S6YeSbWo2WpchioyTpwH-45" source="S6YeSbWo2WpchioyTpwH-53" target="S6YeSbWo2WpchioyTpwH-48">
          <mxGeometry relative="1" as="geometry" />
        </mxCell>
        <mxCell id="S6YeSbWo2WpchioyTpwH-52" value="Outdated version" style="edgeLabel;html=1;align=center;verticalAlign=middle;resizable=0;points=[];rotation=0;fontSize=12;" vertex="1" connectable="0" parent="S6YeSbWo2WpchioyTpwH-51">
          <mxGeometry x="-0.6018" y="-1" relative="1" as="geometry">
            <mxPoint x="1" y="-1" as="offset" />
          </mxGeometry>
        </mxCell>
        <mxCell id="S6YeSbWo2WpchioyTpwH-48" value="" style="ellipse;whiteSpace=wrap;html=1;aspect=fixed;" vertex="1" parent="S6YeSbWo2WpchioyTpwH-45">
          <mxGeometry x="139.5" y="180" width="10" height="10" as="geometry" />
        </mxCell>
        <mxCell id="S6YeSbWo2WpchioyTpwH-72" value="" style="group" vertex="1" connectable="0" parent="S6YeSbWo2WpchioyTpwH-45">
          <mxGeometry x="218.5" y="130" width="60" height="20" as="geometry" />
        </mxCell>
        <mxCell id="S6YeSbWo2WpchioyTpwH-73" value="" style="endArrow=none;dashed=1;html=1;dashPattern=1 3;strokeWidth=2;rounded=0;fillColor=#1ba1e2;strokeColor=#006EAF;" edge="1" parent="S6YeSbWo2WpchioyTpwH-72" target="S6YeSbWo2WpchioyTpwH-75">
          <mxGeometry width="50" height="50" relative="1" as="geometry">
            <mxPoint y="10" as="sourcePoint" />
            <mxPoint x="10.408534998698933" y="30" as="targetPoint" />
          </mxGeometry>
        </mxCell>
        <mxCell id="S6YeSbWo2WpchioyTpwH-74" value="fulfilled" style="edgeLabel;html=1;align=center;verticalAlign=middle;resizable=0;points=[];fontSize=12;fontColor=#006EAF;" vertex="1" connectable="0" parent="S6YeSbWo2WpchioyTpwH-73">
          <mxGeometry x="0.2113" relative="1" as="geometry">
            <mxPoint x="-3" y="-10" as="offset" />
          </mxGeometry>
        </mxCell>
        <mxCell id="S6YeSbWo2WpchioyTpwH-75" value="" style="sketch=0;outlineConnect=0;fontColor=#ffffff;fillColor=#006EAF;strokeColor=#006EAF;dashed=0;verticalLabelPosition=bottom;verticalAlign=top;align=center;html=1;fontSize=12;fontStyle=0;aspect=fixed;pointerEvents=1;shape=mxgraph.aws4.event;" vertex="1" parent="S6YeSbWo2WpchioyTpwH-72">
          <mxGeometry x="49.59" y="4.8" width="10.41" height="10.41" as="geometry" />
        </mxCell>
        <mxCell id="S6YeSbWo2WpchioyTpwH-77" value="set-sync-value" style="shape=process;whiteSpace=wrap;html=1;backgroundOutline=1;" vertex="1" parent="S6YeSbWo2WpchioyTpwH-45">
          <mxGeometry x="158.5" y="210" width="120" height="20" as="geometry" />
        </mxCell>
        <mxCell id="S6YeSbWo2WpchioyTpwH-78" value="set-sync-value" style="shape=process;whiteSpace=wrap;html=1;backgroundOutline=1;" vertex="1" parent="S6YeSbWo2WpchioyTpwH-45">
          <mxGeometry x="12.5" y="210" width="120" height="20" as="geometry" />
        </mxCell>
        <mxCell id="S6YeSbWo2WpchioyTpwH-84" value="" style="group;flipH=1;" vertex="1" connectable="0" parent="S6YeSbWo2WpchioyTpwH-45">
          <mxGeometry x="14" y="140" width="60" height="20" as="geometry" />
        </mxCell>
        <mxCell id="S6YeSbWo2WpchioyTpwH-85" value="" style="endArrow=none;dashed=1;html=1;dashPattern=1 3;strokeWidth=2;rounded=0;fillColor=#1ba1e2;strokeColor=#006EAF;" edge="1" parent="S6YeSbWo2WpchioyTpwH-84" target="S6YeSbWo2WpchioyTpwH-87">
          <mxGeometry width="50" height="50" relative="1" as="geometry">
            <mxPoint x="55" y="10" as="sourcePoint" />
            <mxPoint x="10.408534998698933" y="30" as="targetPoint" />
          </mxGeometry>
        </mxCell>
        <mxCell id="S6YeSbWo2WpchioyTpwH-86" value="rejected" style="edgeLabel;html=1;align=center;verticalAlign=middle;resizable=0;points=[];fontSize=12;fontColor=#006EAF;" vertex="1" connectable="0" parent="S6YeSbWo2WpchioyTpwH-85">
          <mxGeometry x="0.2113" relative="1" as="geometry">
            <mxPoint x="5" y="-10" as="offset" />
          </mxGeometry>
        </mxCell>
        <mxCell id="S6YeSbWo2WpchioyTpwH-87" value="" style="sketch=0;outlineConnect=0;fontColor=#ffffff;fillColor=#006EAF;strokeColor=#006EAF;dashed=0;verticalLabelPosition=bottom;verticalAlign=top;align=center;html=1;fontSize=12;fontStyle=0;aspect=fixed;pointerEvents=1;shape=mxgraph.aws4.event;" vertex="1" parent="S6YeSbWo2WpchioyTpwH-84">
          <mxGeometry x="0.0014650013010566454" y="4.8" width="10.408534998698933" height="10.408534998698933" as="geometry" />
        </mxCell>
        <mxCell id="S6YeSbWo2WpchioyTpwH-62" value="New version number generated" style="text;html=1;strokeColor=none;fillColor=none;align=center;verticalAlign=middle;whiteSpace=wrap;rounded=0;fontColor=#6E4201;" vertex="1" parent="S6YeSbWo2WpchioyTpwH-2">
          <mxGeometry x="311" y="46" width="185" height="30" as="geometry" />
        </mxCell>
        <mxCell id="S6YeSbWo2WpchioyTpwH-109" value="" style="group;flipH=1;" vertex="1" connectable="0" parent="1">
          <mxGeometry x="180" y="400" width="70" height="25.21" as="geometry" />
        </mxCell>
        <mxCell id="S6YeSbWo2WpchioyTpwH-110" value="" style="endArrow=none;dashed=1;html=1;dashPattern=1 3;strokeWidth=2;rounded=0;fillColor=#1ba1e2;strokeColor=#006EAF;" edge="1" parent="S6YeSbWo2WpchioyTpwH-109" target="S6YeSbWo2WpchioyTpwH-112">
          <mxGeometry width="50" height="50" relative="1" as="geometry">
            <mxPoint x="64.16666666666667" y="10" as="sourcePoint" />
            <mxPoint x="12.143290831815422" y="30" as="targetPoint" />
          </mxGeometry>
        </mxCell>
        <mxCell id="S6YeSbWo2WpchioyTpwH-111" value="changed" style="edgeLabel;html=1;align=center;verticalAlign=middle;resizable=0;points=[];fontSize=12;fontColor=#006EAF;" vertex="1" connectable="0" parent="S6YeSbWo2WpchioyTpwH-110">
          <mxGeometry x="0.2113" relative="1" as="geometry">
            <mxPoint x="5" y="-10" as="offset" />
          </mxGeometry>
        </mxCell>
        <mxCell id="S6YeSbWo2WpchioyTpwH-112" value="" style="sketch=0;outlineConnect=0;fontColor=#ffffff;fillColor=#006EAF;strokeColor=#006EAF;dashed=0;verticalLabelPosition=bottom;verticalAlign=top;align=center;html=1;fontSize=12;fontStyle=0;aspect=fixed;pointerEvents=1;shape=mxgraph.aws4.event;" vertex="1" parent="S6YeSbWo2WpchioyTpwH-109">
          <mxGeometry x="2" y="2.8" width="15.2" height="15.2" as="geometry" />
        </mxCell>
      </root>
    </mxGraphModel>
  </diagram>
</mxfile>
